<?xml version="1.0" standalone="no"?>
<!DOCTYPE svg PUBLIC "-//W3C//DTD SVG 20010904//EN"
 "http://www.w3.org/TR/2001/REC-SVG-20010904/DTD/svg10.dtd">
<svg version="1.0" xmlns="http://www.w3.org/2000/svg"
 width="1042.000000pt" height="1042.000000pt" viewBox="0 0 1042.000000 1042.000000"
 preserveAspectRatio="xMidYMid meet">
<metadata>
Created by potrace 1.14, written by Peter Selinger 2001-2017
</metadata>
<g transform="translate(0.000000,1042.000000) scale(0.100000,-0.100000)"
fill="#000000" stroke="none">
<path d="M3164 10402 l-21 -3 0 -1555 c0 -855 -3 -1557 -7 -1561 -3 -3 -706
-6 -1561 -6 l-1555 0 -1 -26 c0 -14 -1 -952 -2 -2083 l-2 -2058 1563 0 c1481
0 1562 -1 1563 -17 0 -10 1 -708 1 -1550 l1 -1533 2083 0 2084 0 0 1550 0
1550 1555 0 1555 0 0 2084 0 2083 -1552 0 -1553 0 -3 1562 c-2 1478 -3 1561
-20 1562 -66 2 -4111 3 -4128 1z m3721 -423 c3 -4 6 -707 6 -1563 l1 -1556
1562 0 1563 0 0 -1665 0 -1665 -96 0 c-53 -1 -756 -1 -1563 -1 l-1467 1 0
-1553 c0 -853 -1 -1557 -1 -1563 0 -8 -456 -11 -1665 -11 l-1665 0 0 1563 0
1562 -1532 1 c-843 0 -1547 1 -1563 1 l-30 0 0 1665 0 1665 1562 0 1563 0 0
1563 0 1562 1659 0 c913 0 1662 -3 1666 -6z"/>
<path d="M3975 8010 c0 -1031 -3 -1561 -10 -1563 -5 -2 -709 -3 -1562 -2
l-1553 0 0 -1251 0 -1251 1555 0 c855 0 1558 -3 1562 -7 4 -4 8 -705 8 -1558
l0 -1552 25 -5 c14 -4 576 -6 1250 -5 l1225 1 2 1549 c1 852 2 1556 2 1564 1
13 182 15 1563 15 l1561 0 1 1235 c1 679 0 1242 -2 1250 -3 14 -173 15 -1559
15 -931 0 -1557 4 -1561 9 -3 5 -5 708 -5 1563 l0 1553 -1251 0 -1251 0 0
-1560z m2085 -423 l0 -1562 1560 0 c858 0 1561 -2 1561 -5 1 -3 2 -377 3 -831
l1 -826 -1545 -1 c-850 0 -1553 -1 -1562 -1 -17 -1 -18 -82 -18 -1561 0 -1241
-3 -1560 -12 -1561 -18 -1 -1609 -1 -1633 0 -20 1 -20 8 -19 1553 0 854 -1
1558 -3 1563 -2 7 -531 10 -1563 9 l-1560 -1 0 827 c0 654 3 829 12 832 7 2
709 4 1561 4 851 -1 1548 1 1548 4 1 3 3 705 4 1560 1 855 3 1556 4 1558 0 1
375 2 831 2 l830 0 0 -1563z"/>
<path d="M4810 7362 l0 -1375 28 -26 c15 -14 48 -44 72 -65 25 -22 92 -83 150
-137 156 -144 163 -149 181 -135 9 6 60 52 114 101 105 96 105 96 216 196 l74
67 0 1373 0 1374 -417 1 -418 1 0 -1375z"/>
<path d="M1720 5610 l-35 -5 1 -410 c1 -225 2 -412 3 -415 0 -3 618 -5 1371
-5 l1371 0 42 46 c36 39 161 176 222 244 11 12 42 45 68 74 41 46 46 55 35 69
-11 14 -60 69 -103 116 -13 13 -211 231 -241 265 l-22 24 -1338 1 c-737 0
-1355 -1 -1374 -4z"/>
<path d="M6072 5612 c-56 -3 -72 -16 -172 -132 -26 -31 -158 -176 -185 -205
-11 -11 -32 -34 -47 -51 l-27 -30 37 -41 c20 -22 71 -78 112 -124 41 -46 100
-110 131 -144 31 -33 66 -71 77 -85 l20 -25 1376 0 1376 0 0 417 0 418 -87 0
c-476 3 -2570 4 -2611 2z"/>
<path d="M5175 4734 c-166 -153 -237 -217 -297 -270 l-67 -59 -1 -1377 0
-1378 418 0 417 0 0 1375 0 1376 -31 27 c-28 25 -73 65 -273 248 -31 28 -69
63 -85 78 -16 14 -29 26 -30 26 -1 0 -23 -21 -51 -46z"/>
</g>
</svg>
